<?xml version="1.0" encoding="utf-8"?>
<!-- Generator: Adobe Illustrator 24.0.2, SVG Export Plug-In . SVG Version: 6.00 Build 0)  -->
<svg version="1.1" id="Capa_1" xmlns="http://www.w3.org/2000/svg" xmlns:xlink="http://www.w3.org/1999/xlink" x="0px" y="0px"
	 width="500px" height="120px" viewBox="0 0 500 120" style="enable-background:new 0 0 500 120;" xml:space="preserve">
<style type="text/css">
	.st0{fill:#00FFCE;}
</style>
<g>
	<path class="st0" d="M21.6,21h35.2v11.7H34.5v21.7h17.7v11.7H34.5v25.2h22.3v11.7H21.6V21z"/>
	<path class="st0" d="M64.2,21h16.2l12.5,49.1h0.2V21h11.5v82.1H91.4L75.9,43.2h-0.2v59.9H64.2V21z"/>
	<path class="st0" d="M114.3,21h19.1c6.6,0,11.5,1.5,14.5,4.6c3,3.1,4.6,7.8,4.6,14.2v5c0,8.5-2.8,13.9-8.4,16.2v0.2
		c3.1,0.9,5.3,2.9,6.6,5.7c1.3,2.9,1.9,6.8,1.9,11.6v14.4c0,2.3,0.1,4.2,0.2,5.7c0.2,1.4,0.5,2.9,1.2,4.3h-13.1
		c-0.5-1.3-0.8-2.6-0.9-3.8c-0.2-1.2-0.2-3.3-0.2-6.3V78c0-3.8-0.6-6.4-1.8-7.9c-1.2-1.5-3.3-2.2-6.3-2.2h-4.5v35.2h-12.9V21z
		 M131.9,56.2c2.6,0,4.5-0.7,5.8-2c1.3-1.3,1.9-3.6,1.9-6.7v-6.3c0-3-0.5-5.1-1.6-6.4c-1.1-1.3-2.7-2-5-2h-5.9v23.5H131.9z"/>
	<path class="st0" d="M161.5,21h12.9v82.1h-12.9V21z"/>
	<path class="st0" d="M211.3,102.9c-2.4,0.9-5.3,1.4-8.6,1.4c-6.3,0-11.2-1.8-14.5-5.4c-3.4-3.6-5-8.7-5-15.2V40.5
		c0-6.6,1.7-11.6,5-15.2c3.4-3.6,8.2-5.4,14.5-5.4c6.3,0,11.2,1.8,14.5,5.4c3.4,3.6,5,8.7,5,15.2v43.2c0,5.5-1.2,10-3.6,13.5
		c0.5,0.8,1.1,1.3,1.8,1.5s1.7,0.4,3,0.4h2v11.7h-3.4C216.2,110.7,212.6,108.1,211.3,102.9z M209.4,84.5V39.7c0-5.4-2.2-8.1-6.7-8.1
		c-4.5,0-6.7,2.7-6.7,8.1v44.8c0,5.4,2.2,8.1,6.7,8.1C207.2,92.6,209.4,89.9,209.4,84.5z"/>
	<path class="st0" d="M235.4,99c-3.3-3.6-4.9-8.7-4.9-15.3V21h12.9v63.6c0,2.8,0.6,4.8,1.7,6.1c1.1,1.3,2.8,1.9,4.9,1.9
		s3.7-0.6,4.9-1.9c1.1-1.3,1.7-3.3,1.7-6.1V21H269v62.6c0,6.6-1.6,11.7-4.9,15.3c-3.3,3.6-8.1,5.3-14.3,5.3
		C243.5,104.3,238.7,102.5,235.4,99z"/>
	<path class="st0" d="M278.1,21h35.2v11.7H291v21.7h17.7v11.7H291v25.2h22.3v11.7h-35.2V21z"/>
	<path class="st0" d="M349.4,21h17.5l13.4,82.1h-12.9L365,86.8v0.2h-14.7l-2.3,16.1h-12L349.4,21z M363.5,75.9l-5.7-40.6h-0.2
		l-5.6,40.6H363.5z"/>
	<path class="st0" d="M383.5,103.1V91.4c1.3,0.3,2.7,0.5,4.2,0.5c2.6,0,4.5-0.6,5.7-1.9c1.2-1.3,1.9-3.3,1.9-5.9V21h12.9v62.6
		c0,6.7-1.5,11.7-4.6,15c-3.1,3.3-7.8,4.9-14.1,4.9C387.2,103.6,385.2,103.4,383.5,103.1z"/>
	<path class="st0" d="M417.5,21h12.9v82.1h-12.9V21z"/>
	<path class="st0" d="M440.1,21h16.2l12.5,49.1h0.2V21h11.5v82.1h-13.3l-15.5-59.9h-0.2v59.9h-11.5V21z"/>
</g>
</svg>
